<?xml version="1.0" encoding="UTF-8" standalone="no"?>
<!DOCTYPE svg PUBLIC "-//W3C//DTD SVG 1.1//EN"
 "http://www.w3.org/Graphics/SVG/1.1/DTD/svg11.dtd">
<!-- Generated by graphviz version 2.47.0 (20210316.0004)
 -->
<!-- Title: dependencies Pages: 1 -->
<svg width="504pt" height="211pt"
 viewBox="0.00 0.00 504.00 211.00" xmlns="http://www.w3.org/2000/svg" xmlns:xlink="http://www.w3.org/1999/xlink">
<g id="graph0" class="graph" transform="scale(1 1) rotate(0) translate(4 207)">
<title>dependencies</title>
<polygon fill="white" stroke="transparent" points="-4,4 -4,-207 500,-207 500,4 -4,4"/>
<text text-anchor="start" x="227.01" y="-42.4" font-family="Times-12" font-weight="bold" font-size="14.00">Legend</text>
<polygon fill="#ffffb3" stroke="transparent" points="14,-10 14,-30 34,-30 34,-10 14,-10"/>
<text text-anchor="start" x="37.63" y="-15.4" font-family="Times-12" font-size="14.00"> &#160;Declarations</text>
<polygon fill="#8dd3c7" stroke="transparent" points="127,-10 127,-30 147,-30 147,-10 127,-10"/>
<text text-anchor="start" x="150.73" y="-15.4" font-family="Times-12" font-size="14.00"> &#160;Module</text>
<polygon fill="#80b1d3" stroke="transparent" points="213,-10 213,-30 233,-30 233,-10 213,-10"/>
<text text-anchor="start" x="236.78" y="-15.4" font-family="Times-12" font-size="14.00"> &#160;Bootstrap</text>
<polygon fill="#fdb462" stroke="transparent" points="310,-10 310,-30 330,-30 330,-10 310,-10"/>
<text text-anchor="start" x="333.67" y="-15.4" font-family="Times-12" font-size="14.00"> &#160;Providers</text>
<polygon fill="#fb8072" stroke="transparent" points="406,-10 406,-30 426,-30 426,-10 406,-10"/>
<text text-anchor="start" x="429.73" y="-15.4" font-family="Times-12" font-size="14.00"> &#160;Exports</text>
<g id="clust1" class="cluster">
<title>cluster_PlayerModule</title>
<polygon fill="none" stroke="black" stroke-dasharray="1,5" points="56,-70 56,-195 440,-195 440,-70 56,-70"/>
</g>
<g id="clust3" class="cluster">
<title>cluster_PlayerModule_imports</title>
<polygon fill="none" stroke="black" points="218,-78 218,-130 432,-130 432,-78 218,-78"/>
</g>
<g id="clust6" class="cluster">
<title>cluster_PlayerModule_providers</title>
<polygon fill="none" stroke="black" points="64,-78 64,-130 210,-130 210,-78 64,-78"/>
</g>
<!-- EnvModule -->
<g id="node1" class="node">
<title>EnvModule</title>
<polygon fill="#8dd3c7" stroke="black" points="424.1,-122 421.1,-126 400.1,-126 397.1,-122 341.9,-122 341.9,-86 424.1,-86 424.1,-122"/>
<text text-anchor="middle" x="383" y="-99.8" font-family="Times,serif" font-size="14.00">EnvModule</text>
</g>
<!-- PlayerModule -->
<g id="node3" class="node">
<title>PlayerModule</title>
<polygon fill="#8dd3c7" stroke="black" points="322.81,-187 319.81,-191 298.81,-191 295.81,-187 227.19,-187 227.19,-151 322.81,-151 322.81,-187"/>
<text text-anchor="middle" x="275" y="-164.8" font-family="Times,serif" font-size="14.00">PlayerModule</text>
</g>
<!-- EnvModule&#45;&gt;PlayerModule -->
<g id="edge1" class="edge">
<title>EnvModule&#45;&gt;PlayerModule</title>
<path fill="none" stroke="black" d="M383,-122.11C383,-141.34 383,-169 383,-169 383,-169 332.68,-169 332.68,-169"/>
<polygon fill="black" stroke="black" points="332.68,-165.5 322.68,-169 332.68,-172.5 332.68,-165.5"/>
</g>
<!-- SharedModule -->
<g id="node2" class="node">
<title>SharedModule</title>
<polygon fill="#8dd3c7" stroke="black" points="324.42,-122 321.42,-126 300.42,-126 297.42,-122 225.58,-122 225.58,-86 324.42,-86 324.42,-122"/>
<text text-anchor="middle" x="275" y="-99.8" font-family="Times,serif" font-size="14.00">SharedModule</text>
</g>
<!-- SharedModule&#45;&gt;PlayerModule -->
<g id="edge2" class="edge">
<title>SharedModule&#45;&gt;PlayerModule</title>
<path fill="none" stroke="black" d="M275,-122.11C275,-122.11 275,-140.99 275,-140.99"/>
<polygon fill="black" stroke="black" points="271.5,-140.99 275,-150.99 278.5,-140.99 271.5,-140.99"/>
</g>
<!-- PlayerService -->
<g id="node4" class="node">
<title>PlayerService</title>
<ellipse fill="#fdb462" stroke="black" cx="137" cy="-104" rx="64.82" ry="18"/>
<text text-anchor="middle" x="137" y="-99.8" font-family="Times,serif" font-size="14.00">PlayerService</text>
</g>
<!-- PlayerService&#45;&gt;PlayerModule -->
<g id="edge3" class="edge">
<title>PlayerService&#45;&gt;PlayerModule</title>
<path fill="none" stroke="black" d="M137,-122.11C137,-141.34 137,-169 137,-169 137,-169 217.12,-169 217.12,-169"/>
<polygon fill="black" stroke="black" points="217.12,-172.5 227.12,-169 217.12,-165.5 217.12,-172.5"/>
</g>
</g>
</svg>
