<?xml version="1.0" encoding="UTF-8" standalone="no"?>
<!DOCTYPE svg PUBLIC "-//W3C//DTD SVG 1.1//EN"
 "http://www.w3.org/Graphics/SVG/1.1/DTD/svg11.dtd">
<!-- Generated by graphviz version 2.47.0 (20210316.0004)
 -->
<!-- Title: dependencies Pages: 1 -->
<svg width="691pt" height="211pt"
 viewBox="0.00 0.00 691.00 211.00" xmlns="http://www.w3.org/2000/svg" xmlns:xlink="http://www.w3.org/1999/xlink">
<g id="graph0" class="graph" transform="scale(1 1) rotate(0) translate(4 207)">
<title>dependencies</title>
<polygon fill="white" stroke="transparent" points="-4,4 -4,-207 687,-207 687,4 -4,4"/>
<text text-anchor="start" x="320.51" y="-42.4" font-family="Times-12" font-weight="bold" font-size="14.00">Legend</text>
<polygon fill="#ffffb3" stroke="transparent" points="107.5,-10 107.5,-30 127.5,-30 127.5,-10 107.5,-10"/>
<text text-anchor="start" x="131.13" y="-15.4" font-family="Times-12" font-size="14.00"> &#160;Declarations</text>
<polygon fill="#8dd3c7" stroke="transparent" points="220.5,-10 220.5,-30 240.5,-30 240.5,-10 220.5,-10"/>
<text text-anchor="start" x="244.23" y="-15.4" font-family="Times-12" font-size="14.00"> &#160;Module</text>
<polygon fill="#80b1d3" stroke="transparent" points="306.5,-10 306.5,-30 326.5,-30 326.5,-10 306.5,-10"/>
<text text-anchor="start" x="330.28" y="-15.4" font-family="Times-12" font-size="14.00"> &#160;Bootstrap</text>
<polygon fill="#fdb462" stroke="transparent" points="403.5,-10 403.5,-30 423.5,-30 423.5,-10 403.5,-10"/>
<text text-anchor="start" x="427.17" y="-15.4" font-family="Times-12" font-size="14.00"> &#160;Providers</text>
<polygon fill="#fb8072" stroke="transparent" points="499.5,-10 499.5,-30 519.5,-30 519.5,-10 499.5,-10"/>
<text text-anchor="start" x="523.23" y="-15.4" font-family="Times-12" font-size="14.00"> &#160;Exports</text>
<g id="clust1" class="cluster">
<title>cluster_ApiGatewayModule</title>
<polygon fill="none" stroke="black" stroke-dasharray="1,5" points="8,-70 8,-195 675,-195 675,-70 8,-70"/>
</g>
<g id="clust3" class="cluster">
<title>cluster_ApiGatewayModule_imports</title>
<polygon fill="none" stroke="black" points="218,-78 218,-130 667,-130 667,-78 218,-78"/>
</g>
<g id="clust6" class="cluster">
<title>cluster_ApiGatewayModule_providers</title>
<polygon fill="none" stroke="black" points="16,-78 16,-130 210,-130 210,-78 16,-78"/>
</g>
<!-- BattlesModule -->
<g id="node1" class="node">
<title>BattlesModule</title>
<polygon fill="#8dd3c7" stroke="black" points="659.43,-122 656.43,-126 635.43,-126 632.43,-122 560.57,-122 560.57,-86 659.43,-86 659.43,-122"/>
<text text-anchor="middle" x="610" y="-99.8" font-family="Times,serif" font-size="14.00">BattlesModule</text>
</g>
<!-- ApiGatewayModule -->
<g id="node5" class="node">
<title>ApiGatewayModule</title>
<polygon fill="#8dd3c7" stroke="black" points="458.29,-187 455.29,-191 434.29,-191 431.29,-187 327.71,-187 327.71,-151 458.29,-151 458.29,-187"/>
<text text-anchor="middle" x="393" y="-164.8" font-family="Times,serif" font-size="14.00">ApiGatewayModule</text>
</g>
<!-- BattlesModule&#45;&gt;ApiGatewayModule -->
<g id="edge1" class="edge">
<title>BattlesModule&#45;&gt;ApiGatewayModule</title>
<path fill="none" stroke="black" d="M610,-122.11C610,-141.34 610,-169 610,-169 610,-169 468.4,-169 468.4,-169"/>
<polygon fill="black" stroke="black" points="468.4,-165.5 458.4,-169 468.4,-172.5 468.4,-165.5"/>
</g>
<!-- EnvModule -->
<g id="node2" class="node">
<title>EnvModule</title>
<polygon fill="#8dd3c7" stroke="black" points="543.1,-122 540.1,-126 519.1,-126 516.1,-122 460.9,-122 460.9,-86 543.1,-86 543.1,-122"/>
<text text-anchor="middle" x="502" y="-99.8" font-family="Times,serif" font-size="14.00">EnvModule</text>
</g>
<!-- EnvModule&#45;&gt;ApiGatewayModule -->
<g id="edge2" class="edge">
<title>EnvModule&#45;&gt;ApiGatewayModule</title>
<path fill="none" stroke="black" d="M460.64,-104C454.82,-104 450.76,-104 450.76,-104 450.76,-104 450.76,-140.89 450.76,-140.89"/>
<polygon fill="black" stroke="black" points="447.26,-140.89 450.76,-150.89 454.26,-140.89 447.26,-140.89"/>
</g>
<!-- PlayersModule -->
<g id="node3" class="node">
<title>PlayersModule</title>
<polygon fill="#8dd3c7" stroke="black" points="443.26,-122 440.26,-126 419.26,-126 416.26,-122 342.74,-122 342.74,-86 443.26,-86 443.26,-122"/>
<text text-anchor="middle" x="393" y="-99.8" font-family="Times,serif" font-size="14.00">PlayersModule</text>
</g>
<!-- PlayersModule&#45;&gt;ApiGatewayModule -->
<g id="edge3" class="edge">
<title>PlayersModule&#45;&gt;ApiGatewayModule</title>
<path fill="none" stroke="black" d="M393,-122.11C393,-122.11 393,-140.99 393,-140.99"/>
<polygon fill="black" stroke="black" points="389.5,-140.99 393,-150.99 396.5,-140.99 389.5,-140.99"/>
</g>
<!-- SharedModule -->
<g id="node4" class="node">
<title>SharedModule</title>
<polygon fill="#8dd3c7" stroke="black" points="324.42,-122 321.42,-126 300.42,-126 297.42,-122 225.58,-122 225.58,-86 324.42,-86 324.42,-122"/>
<text text-anchor="middle" x="275" y="-99.8" font-family="Times,serif" font-size="14.00">SharedModule</text>
</g>
<!-- SharedModule&#45;&gt;ApiGatewayModule -->
<g id="edge4" class="edge">
<title>SharedModule&#45;&gt;ApiGatewayModule</title>
<path fill="none" stroke="black" d="M324.47,-104C330.86,-104 335.24,-104 335.24,-104 335.24,-104 335.24,-140.89 335.24,-140.89"/>
<polygon fill="black" stroke="black" points="331.74,-140.89 335.24,-150.89 338.74,-140.89 331.74,-140.89"/>
</g>
<!-- ApiGatewayService -->
<g id="node6" class="node">
<title>ApiGatewayService</title>
<ellipse fill="#fdb462" stroke="black" cx="113" cy="-104" rx="88.58" ry="18"/>
<text text-anchor="middle" x="113" y="-99.8" font-family="Times,serif" font-size="14.00">ApiGatewayService</text>
</g>
<!-- ApiGatewayService&#45;&gt;ApiGatewayModule -->
<g id="edge5" class="edge">
<title>ApiGatewayService&#45;&gt;ApiGatewayModule</title>
<path fill="none" stroke="black" d="M113,-122.11C113,-141.34 113,-169 113,-169 113,-169 317.71,-169 317.71,-169"/>
<polygon fill="black" stroke="black" points="317.71,-172.5 327.71,-169 317.71,-165.5 317.71,-172.5"/>
</g>
</g>
</svg>
