<?xml version="1.0" encoding="UTF-8" standalone="no"?>
<!DOCTYPE svg PUBLIC "-//W3C//DTD SVG 1.1//EN"
 "http://www.w3.org/Graphics/SVG/1.1/DTD/svg11.dtd">
<!-- Generated by graphviz version 2.47.0 (20210316.0004)
 -->
<!-- Title: dependencies Pages: 1 -->
<svg width="504pt" height="211pt"
 viewBox="0.00 0.00 504.00 211.00" xmlns="http://www.w3.org/2000/svg" xmlns:xlink="http://www.w3.org/1999/xlink">
<g id="graph0" class="graph" transform="scale(1 1) rotate(0) translate(4 207)">
<title>dependencies</title>
<polygon fill="white" stroke="transparent" points="-4,4 -4,-207 500,-207 500,4 -4,4"/>
<text text-anchor="start" x="227.01" y="-42.4" font-family="Times-12" font-weight="bold" font-size="14.00">Legend</text>
<polygon fill="#ffffb3" stroke="transparent" points="14,-10 14,-30 34,-30 34,-10 14,-10"/>
<text text-anchor="start" x="37.63" y="-15.4" font-family="Times-12" font-size="14.00"> &#160;Declarations</text>
<polygon fill="#8dd3c7" stroke="transparent" points="127,-10 127,-30 147,-30 147,-10 127,-10"/>
<text text-anchor="start" x="150.73" y="-15.4" font-family="Times-12" font-size="14.00"> &#160;Module</text>
<polygon fill="#80b1d3" stroke="transparent" points="213,-10 213,-30 233,-30 233,-10 213,-10"/>
<text text-anchor="start" x="236.78" y="-15.4" font-family="Times-12" font-size="14.00"> &#160;Bootstrap</text>
<polygon fill="#fdb462" stroke="transparent" points="310,-10 310,-30 330,-30 330,-10 310,-10"/>
<text text-anchor="start" x="333.67" y="-15.4" font-family="Times-12" font-size="14.00"> &#160;Providers</text>
<polygon fill="#fb8072" stroke="transparent" points="406,-10 406,-30 426,-30 426,-10 406,-10"/>
<text text-anchor="start" x="429.73" y="-15.4" font-family="Times-12" font-size="14.00"> &#160;Exports</text>
<g id="clust1" class="cluster">
<title>cluster_BattleServiceModule</title>
<polygon fill="none" stroke="black" stroke-dasharray="1,5" points="29,-70 29,-195 467,-195 467,-70 29,-70"/>
</g>
<g id="clust3" class="cluster">
<title>cluster_BattleServiceModule_imports</title>
<polygon fill="none" stroke="black" points="245,-78 245,-130 459,-130 459,-78 245,-78"/>
</g>
<g id="clust6" class="cluster">
<title>cluster_BattleServiceModule_providers</title>
<polygon fill="none" stroke="black" points="37,-78 37,-130 237,-130 237,-78 37,-78"/>
</g>
<!-- EnvModule -->
<g id="node1" class="node">
<title>EnvModule</title>
<polygon fill="#8dd3c7" stroke="black" points="451.1,-122 448.1,-126 427.1,-126 424.1,-122 368.9,-122 368.9,-86 451.1,-86 451.1,-122"/>
<text text-anchor="middle" x="410" y="-99.8" font-family="Times,serif" font-size="14.00">EnvModule</text>
</g>
<!-- BattleServiceModule -->
<g id="node3" class="node">
<title>BattleServiceModule</title>
<polygon fill="#8dd3c7" stroke="black" points="369.47,-187 366.47,-191 345.47,-191 342.47,-187 234.53,-187 234.53,-151 369.47,-151 369.47,-187"/>
<text text-anchor="middle" x="302" y="-164.8" font-family="Times,serif" font-size="14.00">BattleServiceModule</text>
</g>
<!-- EnvModule&#45;&gt;BattleServiceModule -->
<g id="edge1" class="edge">
<title>EnvModule&#45;&gt;BattleServiceModule</title>
<path fill="none" stroke="black" d="M368.78,-104C363.6,-104 360.08,-104 360.08,-104 360.08,-104 360.08,-140.89 360.08,-140.89"/>
<polygon fill="black" stroke="black" points="356.58,-140.89 360.08,-150.89 363.58,-140.89 356.58,-140.89"/>
</g>
<!-- SharedModule -->
<g id="node2" class="node">
<title>SharedModule</title>
<polygon fill="#8dd3c7" stroke="black" points="351.42,-122 348.42,-126 327.42,-126 324.42,-122 252.58,-122 252.58,-86 351.42,-86 351.42,-122"/>
<text text-anchor="middle" x="302" y="-99.8" font-family="Times,serif" font-size="14.00">SharedModule</text>
</g>
<!-- SharedModule&#45;&gt;BattleServiceModule -->
<g id="edge2" class="edge">
<title>SharedModule&#45;&gt;BattleServiceModule</title>
<path fill="none" stroke="black" d="M302,-122.11C302,-122.11 302,-140.99 302,-140.99"/>
<polygon fill="black" stroke="black" points="298.5,-140.99 302,-150.99 305.5,-140.99 298.5,-140.99"/>
</g>
<!-- BattleServiceService -->
<g id="node4" class="node">
<title>BattleServiceService</title>
<ellipse fill="#fdb462" stroke="black" cx="137" cy="-104" rx="92.02" ry="18"/>
<text text-anchor="middle" x="137" y="-99.8" font-family="Times,serif" font-size="14.00">BattleServiceService</text>
</g>
<!-- BattleServiceService&#45;&gt;BattleServiceModule -->
<g id="edge3" class="edge">
<title>BattleServiceService&#45;&gt;BattleServiceModule</title>
<path fill="none" stroke="black" d="M229.27,-104C237.99,-104 243.65,-104 243.65,-104 243.65,-104 243.65,-140.89 243.65,-140.89"/>
<polygon fill="black" stroke="black" points="240.15,-140.89 243.65,-150.89 247.15,-140.89 240.15,-140.89"/>
</g>
</g>
</svg>
