<?xml version="1.0" encoding="UTF-8" standalone="no"?>
<!DOCTYPE svg PUBLIC "-//W3C//DTD SVG 1.1//EN"
 "http://www.w3.org/Graphics/SVG/1.1/DTD/svg11.dtd">
<!-- Generated by graphviz version 2.47.0 (20210316.0004)
 -->
<!-- Title: dependencies Pages: 1 -->
<svg width="522pt" height="211pt"
 viewBox="0.00 0.00 522.00 211.00" xmlns="http://www.w3.org/2000/svg" xmlns:xlink="http://www.w3.org/1999/xlink">
<g id="graph0" class="graph" transform="scale(1 1) rotate(0) translate(4 207)">
<title>dependencies</title>
<polygon fill="white" stroke="transparent" points="-4,4 -4,-207 518,-207 518,4 -4,4"/>
<text text-anchor="start" x="236.01" y="-42.4" font-family="Times-12" font-weight="bold" font-size="14.00">Legend</text>
<polygon fill="#ffffb3" stroke="transparent" points="23,-10 23,-30 43,-30 43,-10 23,-10"/>
<text text-anchor="start" x="46.63" y="-15.4" font-family="Times-12" font-size="14.00"> &#160;Declarations</text>
<polygon fill="#8dd3c7" stroke="transparent" points="136,-10 136,-30 156,-30 156,-10 136,-10"/>
<text text-anchor="start" x="159.73" y="-15.4" font-family="Times-12" font-size="14.00"> &#160;Module</text>
<polygon fill="#80b1d3" stroke="transparent" points="222,-10 222,-30 242,-30 242,-10 222,-10"/>
<text text-anchor="start" x="245.78" y="-15.4" font-family="Times-12" font-size="14.00"> &#160;Bootstrap</text>
<polygon fill="#fdb462" stroke="transparent" points="319,-10 319,-30 339,-30 339,-10 319,-10"/>
<text text-anchor="start" x="342.67" y="-15.4" font-family="Times-12" font-size="14.00"> &#160;Providers</text>
<polygon fill="#fb8072" stroke="transparent" points="415,-10 415,-30 435,-30 435,-10 415,-10"/>
<text text-anchor="start" x="438.73" y="-15.4" font-family="Times-12" font-size="14.00"> &#160;Exports</text>
<g id="clust1" class="cluster">
<title>cluster_BattleWorkerServiceModule</title>
<polygon fill="none" stroke="black" stroke-dasharray="1,5" points="8,-70 8,-195 506,-195 506,-70 8,-70"/>
</g>
<g id="clust3" class="cluster">
<title>cluster_BattleWorkerServiceModule_imports</title>
<polygon fill="none" stroke="black" points="284,-78 284,-130 498,-130 498,-78 284,-78"/>
</g>
<g id="clust6" class="cluster">
<title>cluster_BattleWorkerServiceModule_providers</title>
<polygon fill="none" stroke="black" points="16,-78 16,-130 276,-130 276,-78 16,-78"/>
</g>
<!-- EnvModule -->
<g id="node1" class="node">
<title>EnvModule</title>
<polygon fill="#8dd3c7" stroke="black" points="490.1,-122 487.1,-126 466.1,-126 463.1,-122 407.9,-122 407.9,-86 490.1,-86 490.1,-122"/>
<text text-anchor="middle" x="449" y="-99.8" font-family="Times,serif" font-size="14.00">EnvModule</text>
</g>
<!-- BattleWorkerServiceModule -->
<g id="node3" class="node">
<title>BattleWorkerServiceModule</title>
<polygon fill="#8dd3c7" stroke="black" points="429.72,-187 426.72,-191 405.72,-191 402.72,-187 252.28,-187 252.28,-151 429.72,-151 429.72,-187"/>
<text text-anchor="middle" x="341" y="-164.8" font-family="Times,serif" font-size="14.00">BattleWorkerServiceModule</text>
</g>
<!-- EnvModule&#45;&gt;BattleWorkerServiceModule -->
<g id="edge1" class="edge">
<title>EnvModule&#45;&gt;BattleWorkerServiceModule</title>
<path fill="none" stroke="black" d="M418.9,-122.11C418.9,-122.11 418.9,-140.99 418.9,-140.99"/>
<polygon fill="black" stroke="black" points="415.4,-140.99 418.9,-150.99 422.4,-140.99 415.4,-140.99"/>
</g>
<!-- SharedModule -->
<g id="node2" class="node">
<title>SharedModule</title>
<polygon fill="#8dd3c7" stroke="black" points="390.42,-122 387.42,-126 366.42,-126 363.42,-122 291.58,-122 291.58,-86 390.42,-86 390.42,-122"/>
<text text-anchor="middle" x="341" y="-99.8" font-family="Times,serif" font-size="14.00">SharedModule</text>
</g>
<!-- SharedModule&#45;&gt;BattleWorkerServiceModule -->
<g id="edge2" class="edge">
<title>SharedModule&#45;&gt;BattleWorkerServiceModule</title>
<path fill="none" stroke="black" d="M341,-122.11C341,-122.11 341,-140.99 341,-140.99"/>
<polygon fill="black" stroke="black" points="337.5,-140.99 341,-150.99 344.5,-140.99 337.5,-140.99"/>
</g>
<!-- BattleWorkerServiceService -->
<g id="node4" class="node">
<title>BattleWorkerServiceService</title>
<ellipse fill="#fdb462" stroke="black" cx="146" cy="-104" rx="121.5" ry="18"/>
<text text-anchor="middle" x="146" y="-99.8" font-family="Times,serif" font-size="14.00">BattleWorkerServiceService</text>
</g>
<!-- BattleWorkerServiceService&#45;&gt;BattleWorkerServiceModule -->
<g id="edge3" class="edge">
<title>BattleWorkerServiceService&#45;&gt;BattleWorkerServiceModule</title>
<path fill="none" stroke="black" d="M259.82,-110.47C259.82,-110.47 259.82,-140.78 259.82,-140.78"/>
<polygon fill="black" stroke="black" points="256.32,-140.78 259.82,-150.78 263.32,-140.78 256.32,-140.78"/>
</g>
</g>
</svg>
