<?xml version="1.0" encoding="UTF-8" standalone="no"?>
<!DOCTYPE svg PUBLIC "-//W3C//DTD SVG 1.1//EN"
 "http://www.w3.org/Graphics/SVG/1.1/DTD/svg11.dtd">
<!-- Generated by graphviz version 2.47.0 (20210316.0004)
 -->
<!-- Title: dependencies Pages: 1 -->
<svg width="1668pt" height="298pt"
 viewBox="0.00 0.00 1668.00 298.00" xmlns="http://www.w3.org/2000/svg" xmlns:xlink="http://www.w3.org/1999/xlink">
<g id="graph0" class="graph" transform="scale(1 1) rotate(0) translate(4 294)">
<title>dependencies</title>
<polygon fill="white" stroke="transparent" points="-4,4 -4,-294 1664,-294 1664,4 -4,4"/>
<text text-anchor="start" x="809.01" y="-42.4" font-family="Times-12" font-weight="bold" font-size="14.00">Legend</text>
<polygon fill="#ffffb3" stroke="transparent" points="596,-10 596,-30 616,-30 616,-10 596,-10"/>
<text text-anchor="start" x="619.63" y="-15.4" font-family="Times-12" font-size="14.00"> &#160;Declarations</text>
<polygon fill="#8dd3c7" stroke="transparent" points="709,-10 709,-30 729,-30 729,-10 709,-10"/>
<text text-anchor="start" x="732.73" y="-15.4" font-family="Times-12" font-size="14.00"> &#160;Module</text>
<polygon fill="#80b1d3" stroke="transparent" points="795,-10 795,-30 815,-30 815,-10 795,-10"/>
<text text-anchor="start" x="818.78" y="-15.4" font-family="Times-12" font-size="14.00"> &#160;Bootstrap</text>
<polygon fill="#fdb462" stroke="transparent" points="892,-10 892,-30 912,-30 912,-10 892,-10"/>
<text text-anchor="start" x="915.67" y="-15.4" font-family="Times-12" font-size="14.00"> &#160;Providers</text>
<polygon fill="#fb8072" stroke="transparent" points="988,-10 988,-30 1008,-30 1008,-10 988,-10"/>
<text text-anchor="start" x="1011.73" y="-15.4" font-family="Times-12" font-size="14.00"> &#160;Exports</text>
<g id="clust1" class="cluster">
<title>cluster_ApiGatewayModule</title>
<polygon fill="none" stroke="black" stroke-dasharray="1,5" points="306,-146 306,-274 974,-274 974,-146 306,-146"/>
</g>
<g id="clust3" class="cluster">
<title>cluster_ApiGatewayModule_imports</title>
<polygon fill="none" stroke="black" points="516,-154 516,-206 966,-206 966,-154 516,-154"/>
</g>
<g id="clust6" class="cluster">
<title>cluster_ApiGatewayModule_providers</title>
<polygon fill="none" stroke="black" points="314,-154 314,-206 508,-206 508,-154 314,-154"/>
</g>
<g id="clust7" class="cluster">
<title>cluster_BattleServiceModule</title>
<polygon fill="none" stroke="black" stroke-dasharray="1,5" points="982,-146 982,-274 1198,-274 1198,-146 982,-146"/>
</g>
<g id="clust12" class="cluster">
<title>cluster_BattleServiceModule_providers</title>
<polygon fill="none" stroke="black" points="990,-154 990,-206 1190,-206 1190,-154 990,-154"/>
</g>
<g id="clust13" class="cluster">
<title>cluster_BattlesModule</title>
<polygon fill="none" stroke="black" stroke-dasharray="1,5" points="461,-70 461,-138 627,-138 627,-70 461,-70"/>
</g>
<g id="clust18" class="cluster">
<title>cluster_BattlesModule_providers</title>
<polygon fill="none" stroke="black" points="469,-78 469,-130 619,-130 619,-78 469,-78"/>
</g>
<g id="clust19" class="cluster">
<title>cluster_BattleWorkerServiceModule</title>
<polygon fill="none" stroke="black" stroke-dasharray="1,5" points="1206,-146 1206,-274 1482,-274 1482,-146 1206,-146"/>
</g>
<g id="clust24" class="cluster">
<title>cluster_BattleWorkerServiceModule_providers</title>
<polygon fill="none" stroke="black" points="1214,-154 1214,-206 1474,-206 1474,-154 1214,-154"/>
</g>
<g id="clust31" class="cluster">
<title>cluster_PlayerModule</title>
<polygon fill="none" stroke="black" stroke-dasharray="1,5" points="1490,-146 1490,-274 1652,-274 1652,-146 1490,-146"/>
</g>
<g id="clust36" class="cluster">
<title>cluster_PlayerModule_providers</title>
<polygon fill="none" stroke="black" points="1498,-154 1498,-206 1644,-206 1644,-154 1498,-154"/>
</g>
<g id="clust37" class="cluster">
<title>cluster_PlayersModule</title>
<polygon fill="none" stroke="black" stroke-dasharray="1,5" points="635,-70 635,-138 803,-138 803,-70 635,-70"/>
</g>
<g id="clust42" class="cluster">
<title>cluster_PlayersModule_providers</title>
<polygon fill="none" stroke="black" points="643,-78 643,-130 795,-130 795,-78 643,-78"/>
</g>
<g id="clust43" class="cluster">
<title>cluster_SharedModule</title>
<polygon fill="none" stroke="black" stroke-dasharray="1,5" points="8,-214 8,-282 298,-282 298,-214 8,-214"/>
</g>
<g id="clust46" class="cluster">
<title>cluster_SharedModule_exports</title>
<polygon fill="none" stroke="black" points="174,-222 174,-274 290,-274 290,-222 174,-222"/>
</g>
<g id="clust48" class="cluster">
<title>cluster_SharedModule_providers</title>
<polygon fill="none" stroke="black" points="16,-222 16,-274 166,-274 166,-222 16,-222"/>
</g>
<!-- BattlesModule -->
<g id="node1" class="node">
<title>BattlesModule</title>
<polygon fill="#8dd3c7" stroke="black" points="622.43,-198 619.43,-202 598.43,-202 595.43,-198 523.57,-198 523.57,-162 622.43,-162 622.43,-198"/>
<text text-anchor="middle" x="573" y="-175.8" font-family="Times,serif" font-size="14.00">BattlesModule</text>
</g>
<!-- ApiGatewayModule -->
<g id="node5" class="node">
<title>ApiGatewayModule</title>
<polygon fill="#8dd3c7" stroke="black" points="756.29,-266 753.29,-270 732.29,-270 729.29,-266 625.71,-266 625.71,-230 756.29,-230 756.29,-266"/>
<text text-anchor="middle" x="691" y="-243.8" font-family="Times,serif" font-size="14.00">ApiGatewayModule</text>
</g>
<!-- BattlesModule&#45;&gt;ApiGatewayModule -->
<g id="edge1" class="edge">
<title>BattlesModule&#45;&gt;ApiGatewayModule</title>
<path fill="none" stroke="black" d="M622.47,-180C628.86,-180 633.24,-180 633.24,-180 633.24,-180 633.24,-219.78 633.24,-219.78"/>
<polygon fill="black" stroke="black" points="629.74,-219.78 633.24,-229.78 636.74,-219.78 629.74,-219.78"/>
</g>
<!-- EnvModule -->
<g id="node2" class="node">
<title>EnvModule</title>
<polygon fill="#8dd3c7" stroke="black" points="958.1,-198 955.1,-202 934.1,-202 931.1,-198 875.9,-198 875.9,-162 958.1,-162 958.1,-198"/>
<text text-anchor="middle" x="917" y="-175.8" font-family="Times,serif" font-size="14.00">EnvModule</text>
</g>
<!-- EnvModule&#45;&gt;ApiGatewayModule -->
<g id="edge2" class="edge">
<title>EnvModule&#45;&gt;ApiGatewayModule</title>
<path fill="none" stroke="black" d="M937.53,-198.29C937.53,-220.21 937.53,-254 937.53,-254 937.53,-254 766.42,-254 766.42,-254"/>
<polygon fill="black" stroke="black" points="766.42,-250.5 756.42,-254 766.42,-257.5 766.42,-250.5"/>
</g>
<!-- BattleServiceModule -->
<g id="node7" class="node">
<title>BattleServiceModule</title>
<polygon fill="#8dd3c7" stroke="black" points="1124.47,-266 1121.47,-270 1100.47,-270 1097.47,-266 989.53,-266 989.53,-230 1124.47,-230 1124.47,-266"/>
<text text-anchor="middle" x="1057" y="-243.8" font-family="Times,serif" font-size="14.00">BattleServiceModule</text>
</g>
<!-- EnvModule&#45;&gt;BattleServiceModule -->
<g id="edge6" class="edge">
<title>EnvModule&#45;&gt;BattleServiceModule</title>
<path fill="none" stroke="black" d="M958.07,-180C976.32,-180 993.75,-180 993.75,-180 993.75,-180 993.75,-219.78 993.75,-219.78"/>
<polygon fill="black" stroke="black" points="990.25,-219.78 993.75,-229.78 997.25,-219.78 990.25,-219.78"/>
</g>
<!-- BattleWorkerServiceModule -->
<g id="node10" class="node">
<title>BattleWorkerServiceModule</title>
<polygon fill="#8dd3c7" stroke="black" points="1391.72,-266 1388.72,-270 1367.72,-270 1364.72,-266 1214.28,-266 1214.28,-230 1391.72,-230 1391.72,-266"/>
<text text-anchor="middle" x="1303" y="-243.8" font-family="Times,serif" font-size="14.00">BattleWorkerServiceModule</text>
</g>
<!-- EnvModule&#45;&gt;BattleWorkerServiceModule -->
<g id="edge10" class="edge">
<title>EnvModule&#45;&gt;BattleWorkerServiceModule</title>
<path fill="none" stroke="black" d="M896.47,-198.1C896.47,-209.09 896.47,-221 896.47,-221 896.47,-221 1219.71,-221 1219.71,-221 1219.71,-221 1219.71,-221.88 1219.71,-221.88"/>
<polygon fill="black" stroke="black" points="1216.21,-219.84 1219.71,-229.84 1223.21,-219.84 1216.21,-219.84"/>
</g>
<!-- PlayerModule -->
<g id="node12" class="node">
<title>PlayerModule</title>
<polygon fill="#8dd3c7" stroke="black" points="1593.81,-266 1590.81,-270 1569.81,-270 1566.81,-266 1498.19,-266 1498.19,-230 1593.81,-230 1593.81,-266"/>
<text text-anchor="middle" x="1546" y="-243.8" font-family="Times,serif" font-size="14.00">PlayerModule</text>
</g>
<!-- EnvModule&#45;&gt;PlayerModule -->
<g id="edge13" class="edge">
<title>EnvModule&#45;&gt;PlayerModule</title>
<path fill="none" stroke="black" d="M917,-198.21C917,-203.55 917,-208 917,-208 917,-208 1503.67,-208 1503.67,-208 1503.67,-208 1503.67,-219.87 1503.67,-219.87"/>
<polygon fill="black" stroke="black" points="1500.17,-219.87 1503.67,-229.87 1507.17,-219.87 1500.17,-219.87"/>
</g>
<!-- PlayersModule -->
<g id="node3" class="node">
<title>PlayersModule</title>
<polygon fill="#8dd3c7" stroke="black" points="741.26,-198 738.26,-202 717.26,-202 714.26,-198 640.74,-198 640.74,-162 741.26,-162 741.26,-198"/>
<text text-anchor="middle" x="691" y="-175.8" font-family="Times,serif" font-size="14.00">PlayersModule</text>
</g>
<!-- PlayersModule&#45;&gt;ApiGatewayModule -->
<g id="edge3" class="edge">
<title>PlayersModule&#45;&gt;ApiGatewayModule</title>
<path fill="none" stroke="black" d="M691,-198.22C691,-198.22 691,-219.73 691,-219.73"/>
<polygon fill="black" stroke="black" points="687.5,-219.73 691,-229.73 694.5,-219.73 687.5,-219.73"/>
</g>
<!-- SharedModule -->
<g id="node4" class="node">
<title>SharedModule</title>
<polygon fill="#8dd3c7" stroke="black" points="858.42,-198 855.42,-202 834.42,-202 831.42,-198 759.58,-198 759.58,-162 858.42,-162 858.42,-198"/>
<text text-anchor="middle" x="809" y="-175.8" font-family="Times,serif" font-size="14.00">SharedModule</text>
</g>
<!-- SharedModule&#45;&gt;ApiGatewayModule -->
<g id="edge4" class="edge">
<title>SharedModule&#45;&gt;ApiGatewayModule</title>
<path fill="none" stroke="black" d="M759.53,-180C753.14,-180 748.76,-180 748.76,-180 748.76,-180 748.76,-219.78 748.76,-219.78"/>
<polygon fill="black" stroke="black" points="745.26,-219.78 748.76,-229.78 752.26,-219.78 745.26,-219.78"/>
</g>
<!-- SharedModule&#45;&gt;BattleServiceModule -->
<g id="edge7" class="edge">
<title>SharedModule&#45;&gt;BattleServiceModule</title>
<path fill="none" stroke="black" d="M841.81,-198.27C841.81,-216.56 841.81,-242 841.81,-242 841.81,-242 979.5,-242 979.5,-242"/>
<polygon fill="black" stroke="black" points="979.5,-245.5 989.5,-242 979.5,-238.5 979.5,-245.5"/>
</g>
<!-- SharedModule&#45;&gt;BattleWorkerServiceModule -->
<g id="edge11" class="edge">
<title>SharedModule&#45;&gt;BattleWorkerServiceModule</title>
<path fill="none" stroke="black" d="M809,-198.18C809,-211.04 809,-226 809,-226 809,-226 1216.93,-226 1216.93,-226 1216.93,-226 1216.93,-226.38 1216.93,-226.38"/>
<polygon fill="black" stroke="black" points="1213.43,-219.83 1216.93,-229.83 1220.43,-219.83 1213.43,-219.83"/>
</g>
<!-- SharedModule&#45;&gt;PlayerModule -->
<g id="edge14" class="edge">
<title>SharedModule&#45;&gt;PlayerModule</title>
<path fill="none" stroke="black" d="M825.4,-198.24C825.4,-205.43 825.4,-212 825.4,-212 825.4,-212 1501.01,-212 1501.01,-212 1501.01,-212 1501.01,-219.58 1501.01,-219.58"/>
<polygon fill="black" stroke="black" points="1497.51,-219.58 1501.01,-229.58 1504.51,-219.58 1497.51,-219.58"/>
</g>
<!-- SharedService  -->
<g id="node15" class="node">
<title>SharedService </title>
<polygon fill="#fb8072" stroke="black" points="282.35,-266 181.65,-266 181.65,-230 282.35,-230 282.35,-266"/>
<text text-anchor="middle" x="232" y="-243.8" font-family="Times,serif" font-size="14.00">SharedService </text>
</g>
<!-- SharedModule&#45;&gt;SharedService  -->
<g id="edge17" class="edge">
<title>SharedModule&#45;&gt;SharedService </title>
<path fill="none" stroke="black" stroke-dasharray="5,2" d="M792.6,-198.07C792.6,-207.46 792.6,-217 792.6,-217 792.6,-217 232,-217 232,-217 232,-217 232,-219.97 232,-219.97"/>
<polygon fill="black" stroke="black" points="228.5,-219.97 232,-229.97 235.5,-219.97 228.5,-219.97"/>
</g>
<!-- ApiGatewayService -->
<g id="node6" class="node">
<title>ApiGatewayService</title>
<ellipse fill="#fdb462" stroke="black" cx="411" cy="-180" rx="88.58" ry="18"/>
<text text-anchor="middle" x="411" y="-175.8" font-family="Times,serif" font-size="14.00">ApiGatewayService</text>
</g>
<!-- ApiGatewayService&#45;&gt;ApiGatewayModule -->
<g id="edge5" class="edge">
<title>ApiGatewayService&#45;&gt;ApiGatewayModule</title>
<path fill="none" stroke="black" d="M411,-198.22C411,-218.37 411,-248 411,-248 411,-248 615.71,-248 615.71,-248"/>
<polygon fill="black" stroke="black" points="615.71,-251.5 625.71,-248 615.71,-244.5 615.71,-251.5"/>
</g>
<!-- BattleServiceService -->
<g id="node8" class="node">
<title>BattleServiceService</title>
<ellipse fill="#fdb462" stroke="black" cx="1090" cy="-180" rx="92.02" ry="18"/>
<text text-anchor="middle" x="1090" y="-175.8" font-family="Times,serif" font-size="14.00">BattleServiceService</text>
</g>
<!-- BattleServiceService&#45;&gt;BattleServiceModule -->
<g id="edge8" class="edge">
<title>BattleServiceService&#45;&gt;BattleServiceModule</title>
<path fill="none" stroke="black" d="M1061.24,-197.16C1061.24,-197.16 1061.24,-219.65 1061.24,-219.65"/>
<polygon fill="black" stroke="black" points="1057.74,-219.65 1061.24,-229.65 1064.74,-219.65 1057.74,-219.65"/>
</g>
<!-- BattlesService -->
<g id="node9" class="node">
<title>BattlesService</title>
<ellipse fill="#fdb462" stroke="black" cx="544" cy="-104" rx="66.62" ry="18"/>
<text text-anchor="middle" x="544" y="-99.8" font-family="Times,serif" font-size="14.00">BattlesService</text>
</g>
<!-- BattlesService&#45;&gt;BattlesModule -->
<g id="edge9" class="edge">
<title>BattlesService&#45;&gt;BattlesModule</title>
<path fill="none" stroke="black" d="M567.3,-121.25C567.3,-121.25 567.3,-151.76 567.3,-151.76"/>
<polygon fill="black" stroke="black" points="563.8,-151.76 567.3,-161.76 570.8,-151.76 563.8,-151.76"/>
</g>
<!-- BattleWorkerServiceService -->
<g id="node11" class="node">
<title>BattleWorkerServiceService</title>
<ellipse fill="#fdb462" stroke="black" cx="1344" cy="-180" rx="121.5" ry="18"/>
<text text-anchor="middle" x="1344" y="-175.8" font-family="Times,serif" font-size="14.00">BattleWorkerServiceService</text>
</g>
<!-- BattleWorkerServiceService&#45;&gt;BattleWorkerServiceModule -->
<g id="edge12" class="edge">
<title>BattleWorkerServiceService&#45;&gt;BattleWorkerServiceModule</title>
<path fill="none" stroke="black" d="M1307.18,-197.16C1307.18,-197.16 1307.18,-219.65 1307.18,-219.65"/>
<polygon fill="black" stroke="black" points="1303.68,-219.65 1307.18,-229.65 1310.68,-219.65 1303.68,-219.65"/>
</g>
<!-- PlayerService -->
<g id="node13" class="node">
<title>PlayerService</title>
<ellipse fill="#fdb462" stroke="black" cx="1571" cy="-180" rx="64.82" ry="18"/>
<text text-anchor="middle" x="1571" y="-175.8" font-family="Times,serif" font-size="14.00">PlayerService</text>
</g>
<!-- PlayerService&#45;&gt;PlayerModule -->
<g id="edge15" class="edge">
<title>PlayerService&#45;&gt;PlayerModule</title>
<path fill="none" stroke="black" d="M1550,-197.16C1550,-197.16 1550,-219.65 1550,-219.65"/>
<polygon fill="black" stroke="black" points="1546.5,-219.65 1550,-229.65 1553.5,-219.65 1546.5,-219.65"/>
</g>
<!-- PlayersService -->
<g id="node14" class="node">
<title>PlayersService</title>
<ellipse fill="#fdb462" stroke="black" cx="719" cy="-104" rx="68.33" ry="18"/>
<text text-anchor="middle" x="719" y="-99.8" font-family="Times,serif" font-size="14.00">PlayersService</text>
</g>
<!-- PlayersService&#45;&gt;PlayersModule -->
<g id="edge16" class="edge">
<title>PlayersService&#45;&gt;PlayersModule</title>
<path fill="none" stroke="black" d="M695.98,-121.25C695.98,-121.25 695.98,-151.76 695.98,-151.76"/>
<polygon fill="black" stroke="black" points="692.48,-151.76 695.98,-161.76 699.48,-151.76 692.48,-151.76"/>
</g>
<!-- SharedService -->
<g id="node16" class="node">
<title>SharedService</title>
<ellipse fill="#fdb462" stroke="black" cx="91" cy="-248" rx="66.61" ry="18"/>
<text text-anchor="middle" x="91" y="-243.8" font-family="Times,serif" font-size="14.00">SharedService</text>
</g>
<!-- SharedService&#45;&gt;SharedModule -->
<g id="edge18" class="edge">
<title>SharedService&#45;&gt;SharedModule</title>
<path fill="none" stroke="black" d="M91,-229.96C91,-217.44 91,-203 91,-203 91,-203 776.19,-203 776.19,-203 776.19,-203 776.19,-202.51 776.19,-202.51"/>
<polygon fill="black" stroke="black" points="779.69,-208.12 776.19,-198.12 772.69,-208.12 779.69,-208.12"/>
</g>
</g>
</svg>
